<svg aria-hidden="true" style="position: absolute; width: 0; height: 0; overflow: hidden;" version="1.1" xmlns="http://www.w3.org/2000/svg" xmlns:xlink="http://www.w3.org/1999/xlink">
<defs>
<symbol id="icon-burger" viewBox="0 0 32 32">
<path stroke-linejoin="miter" stroke-linecap="butt" stroke-miterlimit="4" stroke-width="1.6" d="M0 6.4h32"></path>
<path stroke-linejoin="miter" stroke-linecap="butt" stroke-miterlimit="4" stroke-width="1.6" d="M0 16h32"></path>
<path stroke-linejoin="miter" stroke-linecap="butt" stroke-miterlimit="4" stroke-width="1.6" d="M0 25.6h32"></path>
</symbol>
<symbol id="icon-close" viewBox="0 0 32 32">
<path stroke-linejoin="miter" stroke-linecap="butt" stroke-miterlimit="4" stroke-width="2" d="M2.519 2l26.963 28"></path>
<path stroke-linejoin="miter" stroke-linecap="butt" stroke-miterlimit="4" stroke-width="2" d="M2 29.481l28-26.963"></path>
</symbol>
<symbol id="icon-telegram" viewBox="0 0 32 32">
<path d="M12.964 19.8l-0.508 6.671c0.727 0 1.042-0.292 1.42-0.641l3.409-3.040 7.063 4.828c1.295 0.674 2.208 0.319 2.557-1.112l4.638-20.277c0.411-1.787-0.692-2.486-1.955-2.048l-27.252 9.738c-1.86 0.674-1.832 1.641-0.316 2.080l6.967 2.023 16.183-9.451c0.762-0.471 1.454-0.21 0.884 0.26l-13.091 10.971z"></path>
</symbol>
<symbol id="icon-github" viewBox="0 0 32 32">
<path d="M16 0.941c-8.271 0-15.059 6.788-15.059 15.059 0 7.058 4.953 13.47 11.529 15.059v-4.982c-0.652 0.143-1.251 0.147-1.915-0.049-0.89-0.263-1.613-0.856-2.15-1.76-0.342-0.577-0.949-1.203-1.581-1.157l-0.155-1.758c1.368-0.117 2.551 0.833 3.254 2.013 0.312 0.525 0.671 0.832 1.132 0.969 0.446 0.131 0.924 0.068 1.481-0.129 0.14-1.116 0.651-1.534 1.037-2.122v-0.001c-3.922-0.585-5.486-2.666-6.106-4.308-0.822-2.181-0.381-4.905 1.073-6.627 0.028-0.034 0.079-0.121 0.060-0.183-0.667-2.014 0.146-3.679 0.176-3.856 0.769 0.228 0.894-0.229 3.342 1.258l0.423 0.254c0.177 0.105 0.121 0.045 0.298 0.032 1.022-0.278 2.099-0.431 3.16-0.445 1.069 0.014 2.14 0.167 3.204 0.456l0.137 0.014c-0.012-0.002 0.037-0.009 0.12-0.058 3.057-1.852 2.947-1.247 3.767-1.513 0.030 0.177 0.831 1.87 0.172 3.858-0.089 0.274 2.65 2.782 1.132 6.809-0.62 1.643-2.184 3.724-6.106 4.309v0.001c0.503 0.766 1.107 1.174 1.104 2.755v6.219c6.577-1.589 11.529-8.001 11.529-15.059 0-8.271-6.787-15.059-15.059-15.059v0z"></path>
</symbol>
<symbol id="icon-facebook" viewBox="0 0 16 32">
<path d="M14.266 15.97h-4.176v15.39h-6.327v-15.39h-3.009v-5.409h3.009v-3.5c0-2.503 1.182-6.422 6.384-6.422l4.687 0.020v5.25h-3.401c-0.558 0-1.342 0.28-1.342 1.474v3.183h4.729l-0.553 5.403z"></path>
</symbol>
<symbol id="icon-left" viewBox="0 0 32 32">
<path stroke-linejoin="round" stroke-linecap="round" stroke-miterlimit="4" stroke-width="6.4" d="M6.742 3.2l16.825 12.8-16.825 12.8"></path>
</symbol>
<symbol id="icon-home" viewBox="0 0 32 32">
<path d="M30.129 15.447c0.553-0.6 0.5-1.52-0.119-2.054l-13.636-11.77c-0.619-0.534-1.611-0.523-2.217 0.025l-13.682 12.372c-0.606 0.548-0.636 1.466-0.066 2.051l0.343 0.352c0.569 0.584 1.489 0.654 2.053 0.155l1.023-0.903v13.224c0 0.811 0.667 1.468 1.488 1.468h5.333c0.822 0 1.488-0.657 1.488-1.468v-9.252h6.803v9.252c-0.012 0.811 0.576 1.468 1.398 1.468h5.652c0.822 0 1.488-0.657 1.488-1.468v-13.038c0 0 0.282 0.244 0.631 0.546s1.078 0.060 1.631-0.541l0.388-0.42z"></path>
</symbol>
<symbol id="icon-right" viewBox="0 0 32 32"><path d="M21.946 13.181c0-.072-18.944-.072-18.98-.108s-1.482.47-1.518.434c-.036-.036-1.049 1.121-1.085 1.085s-.325 1.844-.325 1.916c0 .072.578 1.229.542 1.193s1.193 1.049 1.157 1.012c-.036-.036 1.193.325 1.157.289s19.269-.036 19.342-.036c.072 0-6.29 6.508-6.327 6.471s-.759 1.627-.795 1.591c-.036-.036.181 1.772.145 1.736s1.049 1.193 1.012 1.157c-.036-.036 1.627.615 1.591.578s1.916-.47 1.88-.506c-.036-.036 11.677-12.4 11.641-12.436s.615-1.338.578-1.374c-.036-.036-.108-.976-.145-1.012s-.831-1.193-.868-1.229L19.379 2.373c-.036-.036-1.338-.831-1.374-.868-.036-.036-1.627.181-1.663.145s-1.41 1.121-1.446 1.085c-.036-.036-.325 1.772-.362 1.736s.47 1.699.434 1.663l3.475 3.511 3.502 3.538z"/></symbol>
<symbol id="icon-phone" viewBox="0 0 32 32"><path d="M22 20c-2 2-2 4-4 4s-4-2-6-4-4-4-4-6 2-2 4-4-4-8-6-8-6 6-6 6c0 4 4.109 12.109 8 16s12 8 16 8c0 0 6-4 6-6s-6-8-8-6z"/></symbol>
<symbol id="icon-envelop" viewBox="0 0 32 32"><path d="M29 4H3C1.35 4 0 5.35 0 7v20c0 1.65 1.35 3 3 3h26c1.65 0 3-1.35 3-3V7c0-1.65-1.35-3-3-3zM12.461 17.199 4 23.789V8.113l8.461 9.086zM5.512 8h20.976L16 15.875 5.512 8zm7.278 9.553L16 21l3.21-3.447L25.79 26H6.211l6.58-8.447zm6.749-.354L28 8.113v15.676l-8.461-6.59z"/></symbol>
<symbol id="icon-compass" viewBox="0 0 32 32"><path d="M16 0C7.163 0 0 7.163 0 16s7.163 16 16 16 16-7.163 16-16S24.837 0 16 0zM3 16C3 8.82 8.82 3 16 3c3.424 0 6.538 1.325 8.86 3.488L12 12 6.488 24.86A12.952 12.952 0 0 1 3 16zm15.286 2.286-8.003 3.43 3.43-8.003 4.573 4.573zM16 29a12.955 12.955 0 0 1-8.86-3.488L20 20l5.512-12.86A12.952 12.952 0 0 1 29 16c0 7.18-5.82 13-13 13z"/></symbol>
<symbol id="icon-bubble" viewBox="0 0 32 32"><path d="M16 6c-1.717 0-3.375.271-4.928.804-1.46.502-2.76 1.211-3.863 2.108C5.14 10.593 4 12.755 4 15c0 1.259.35 2.481 1.039 3.63.711 1.185 1.781 2.268 3.093 3.133a3.996 3.996 0 0 1 1.755 2.747c.056.375.091.753.105 1.129.233-.194.461-.401.684-.624a4 4 0 0 1 3.333-1.14c.655.083 1.325.126 1.99.126 1.717 0 3.375-.271 4.928-.804 1.46-.502 2.76-1.211 3.863-2.108 2.069-1.681 3.209-3.843 3.209-6.088s-1.14-4.407-3.209-6.088c-1.104-.897-2.404-1.606-3.863-2.108a15.118 15.118 0 0 0-4.928-.804zm0-4c8.837 0 16 5.82 16 13s-7.163 13-16 13a19.66 19.66 0 0 1-2.495-.158C10.068 31.279 5.966 31.895 2 31.986v-.841C4.142 30.096 6 28.184 6 26c0-.305-.024-.604-.068-.897C2.313 22.72 0 19.079 0 15 0 7.82 7.163 2 16 2z"/></symbol>
<symbol id="icon-user" viewBox="0 0 32 32"><path d="M18 22.082v-1.649c2.203-1.241 4-4.337 4-7.432 0-4.971 0-9-6-9s-6 4.029-6 9c0 3.096 1.797 6.191 4 7.432v1.649C7.216 22.637 2 25.97 2 30h28c0-4.03-5.216-7.364-12-7.918z"/></symbol><symbol id="icon-cross" viewBox="0 0 32 32"><path d="M31.708 25.708 22 16l9.708-9.708a1 1 0 0 0 0-1.414L27.122.292a1 1 0 0 0-1.414-.001L16 9.999 6.292.291a.998.998 0 0 0-1.414.001L.292 4.878a1 1 0 0 0 0 1.414L10 16 .292 25.708a.999.999 0 0 0 0 1.414l4.586 4.586a1 1 0 0 0 1.414 0L16 22l9.708 9.708a1 1 0 0 0 1.414 0l4.586-4.586a.999.999 0 0 0 0-1.414z"/></symbol>
<symbol id="icon-checkmark" viewBox="0 0 32 32"><path d="M27 4 12 19l-7-7-5 5 12 12L32 9z"/></symbol><symbol id="icon-circle-up" viewBox="0 0 32 32"><path d="M0 16c0 8.837 7.163 16 16 16s16-7.163 16-16S24.837 0 16 0 0 7.163 0 16zm29 0c0 7.18-5.82 13-13 13S3 23.18 3 16 8.82 3 16 3s13 5.82 13 13z"/><path d="m22.086 20.914 2.829-2.829-8.914-8.914-8.914 8.914 2.828 2.828 6.086-6.086z"/></symbol>
<symbol id="icon-btn-right" viewBox="0 0 32 32"><path d="M16 0C7.163 0 0 7.163 0 16s7.163 16 16 16 16-7.163 16-16S24.837 0 16 0zm0 29C8.82 29 3 23.18 3 16S8.82 3 16 3s13 5.82 13 13-5.82 13-13 13z"/><path d="m11.086 22.086 2.829 2.829 8.914-8.914-8.914-8.914-2.828 2.828 6.086 6.086z"/></symbol>

</defs>
</svg>
